Coordinates
version=1
nRows=20
nColumns=34
inDegrees=yes

Units are S.I. units (second, meters, Newtons, ...)
If the header above contains a line with 'inDegrees', this indicates whether rotational values are in degrees (yes) or radians (no).

endheader
time	pelvis_tilt	pelvis_list	pelvis_rotation	pelvis_tx	pelvis_ty	pelvis_tz	hip_flexion_r	hip_adduction_r	hip_rotation_r	knee_angle_r	ankle_angle_r	subtalar_angle_r	mtp_angle_r	hip_flexion_l	hip_adduction_l	hip_rotation_l	knee_angle_l	ankle_angle_l	subtalar_angle_l	mtp_angle_l	lumbar_extension	lumbar_bending	lumbar_rotation	arm_flex_r	arm_add_r	arm_rot_r	elbow_flex_r	pro_sup_r	arm_flex_l	arm_add_l	arm_rot_l	elbow_flex_l	pro_sup_l
      1.93333330	     -4.62835847	      1.08777649	   -126.69244645	      0.03836823	      1.01815207	     -0.07630139	      2.99217768	     -0.04469401	     28.11778672	      3.37753509	      7.13974624	      6.77105225	      0.00000000	     12.78329907	    -19.41980230	    -31.66627114	     25.00850849	      0.90035563	    -13.35326767	      0.00000000	    -13.11895083	     -1.15179283	     -9.36405262	     28.97621156	    -30.48909292	     30.12911440	     75.26353615	    115.89520702	     45.19722393	    -37.51845104	     48.98831605	     74.60151145	    119.74817918
      1.95000000	     -4.59890451	      1.04966170	   -126.43239203	      0.04214401	      1.01815667	     -0.07669728	      3.04353242	     -0.31296359	     27.68375081	      3.18949591	      6.92180644	      6.85881873	      0.00000000	     13.68243396	    -19.72922723	    -33.67620375	     26.02889868	     -0.23286220	    -13.98048414	      0.00000000	    -13.10846983	     -0.76455886	    -10.14201021	     29.19433983	    -31.89770476	     30.04842315	     76.97654902	    115.96437565	     46.36892545	    -39.24501471	     49.64095768	     75.43291216	    119.74817918
      1.96666670	     -4.80075080	      1.32239271	   -126.39576188	      0.04584995	      1.01764124	     -0.07841762	      3.56777164	     -0.00439018	     27.02235252	      3.57257870	      6.94979384	      7.27253387	      0.00000000	     14.92902785	    -20.61561928	    -35.26882745	     27.54081882	     -1.06907885	    -15.02207666	      0.00000000	    -13.11025129	     -0.08695992	    -10.37629505	     29.24294466	    -33.34466223	     29.24296271	     78.81520708	    116.10637757	     48.79257663	    -40.79539776	     51.98012637	     75.61782028	    119.74817918
      1.98333330	     -4.84852886	      1.26275138	   -126.23692872	      0.04966456	      1.01773054	     -0.07884581	      3.57023715	     -0.21343694	     26.67745118	      3.43173675	      6.66420774	      7.44125211	      0.00000000	     15.65287359	    -20.96773982	    -36.95021991	     28.55421795	     -1.97441163	    -15.61060103	      0.00000000	    -13.23754533	      0.39052055	    -11.13076199	     29.45840336	    -34.63444450	     28.72522751	     80.69885883	    116.16461834	     49.92055610	    -42.62610208	     52.42453313	     76.43087393	    119.74817918
      2.00000000	     -5.14202697	      1.54457205	   -126.17411295	      0.05297413	      1.01722684	     -0.08056884	      3.99319890	      0.18361013	     26.02784628	      3.73034910	      6.63181395	      7.84502250	      0.00000000	     16.68999114	    -21.89099532	    -38.27080938	     29.79746633	     -2.84337881	    -16.69421191	      0.00000000	    -13.28953415	      1.11623101	    -11.28112124	     29.18057502	    -36.01045928	     27.36547536	     82.62289327	    116.34263503	     52.43555587	    -44.10607617	     54.67982064	     76.44675049	    119.74817918
      2.01666670	     -5.12175817	      1.48501242	   -126.15161019	      0.05637385	      1.01725250	     -0.08149635	      4.04607004	     -0.05420333	     25.77764829	      3.52568163	      6.33077711	      7.95258212	      0.00000000	     17.24832837	    -22.11286789	    -39.58690967	     30.55495411	     -3.57733690	    -17.19058778	      0.00000000	    -13.40926649	      1.41705012	    -11.96915550	     29.42901742	    -37.22649403	     26.91844543	     84.37276342	    116.40465330	     53.53285746	    -45.98360403	     54.90989333	     76.96429422	    119.74817918
      2.03333330	     -5.39634392	      1.60957601	   -125.97091814	      0.05981557	      1.01709214	     -0.08252479	      4.07390890	      0.07815852	     25.59321008	      3.34768464	      6.06061528	      8.11628540	      0.00000000	     17.95621982	    -22.55447649	    -39.99999995	     31.27165782	     -4.40453240	    -18.31321173	      0.00000000	    -13.61529903	      2.04550027	    -12.59997611	     29.58142032	    -38.64089431	     26.28307393	     86.21293557	    116.49272071	     55.08893805	    -47.95045613	     55.84510403	     77.82076203	    119.74817918
      2.05000000	     -5.78540839	      2.02849629	   -126.08376186	      0.06296886	      1.01649077	     -0.08504510	      4.56133228	      0.64480431	     25.43437668	      3.50111446	      5.67218996	      8.38344490	      0.00000000	     18.91161773	    -23.31462266	    -39.99999995	     31.97981280	     -5.83478708	    -20.17929104	      0.00000000	    -13.76193688	      2.76472325	    -12.51544477	     29.42013604	    -40.04881141	     24.62235197	     87.63140788	    116.71851701	     58.12380504	    -49.43649130	     58.63856569	     77.94082712	    119.74817918
      2.06666670	     -5.83061218	      2.15890798	   -126.13669510	      0.06565818	      1.01605456	     -0.08619586	      4.82457537	      0.64137103	     25.26901976	      3.50172829	      5.69383709	      8.66823642	      0.00000000	     19.50585870	    -23.44594714	    -39.99999995	     32.39085690	     -6.47117612	    -21.09153147	      0.00000000	    -13.77835416	      3.01967193	    -12.48614015	     28.49234872	    -41.58107944	     22.39564179	     89.73784690	    117.20516429	     60.88546770	    -50.60535397	     61.39828830	     77.42411611	    119.74817918
      2.08333330	     -5.83645662	      2.19593635	   -126.18268334	      0.06837342	      1.01582030	     -0.08674871	      4.86660041	      0.46359657	     25.34262805	      3.22606037	      5.46339957	      8.91593693	      0.00000000	     19.90387813	    -23.44154517	    -39.99999995	     32.71064177	     -6.67097463	    -21.41008375	      0.00000000	    -13.83754306	      3.30666706	    -12.98651503	     28.70690259	    -43.11179387	     21.76775073	     91.22658038	    117.30799202	     61.90732392	    -52.31463244	     61.55565301	     77.73030161	    119.74817918
      2.10000000	     -5.92015942	      2.29136977	   -126.36501065	      0.07072801	      1.01568011	     -0.08717528	      4.91759864	      0.42583844	     25.49223879	      2.99322219	      5.23489110	      9.19226258	      0.00000000	     20.18652019	    -23.55840213	    -39.99999995	     32.97855408	     -6.96353099	    -21.74835309	      0.00000000	    -13.84662373	      3.69045427	    -13.28231632	     28.99351616	    -44.66225761	     21.00776116	     92.57980780	    117.41079597	     63.07986116	    -53.98439871	     62.11758513	     77.94546096	    119.74817918
      2.11666670	     -6.27208641	      2.56399278	   -126.67998643	      0.07290277	      1.01541008	     -0.08823191	      5.06687502	      0.79219649	     25.69590671	      2.90751463	      5.06225197	      9.40174056	      0.00000000	     20.43152261	    -24.09687782	    -39.99999995	     33.17669675	     -7.52460913	    -22.48820999	      0.00000000	    -13.98344674	      4.27574663	    -12.91531531	     28.64379895	    -46.59429146	     19.34140932	     93.82769945	    117.80151971	     66.13998746	    -55.16039406	     65.43955064	     78.01171974	    119.74817918
      2.13333330	     -6.06589994	      2.54663386	   -126.91626745	      0.07531303	      1.01526758	     -0.08823941	      5.23792084	      0.41943449	     25.91279245	      2.74618288	      4.81148049	      9.66076477	      0.00000000	     20.53235715	    -23.74866594	    -39.99999995	     33.10558917	     -7.24161837	    -22.44681154	      0.00000000	    -13.84637014	      4.39523362	    -13.18019544	     28.89155066	    -48.20548597	     18.63236647	     95.11973498	    117.91232270	     67.10695835	    -56.62600896	     66.02378435	     77.70827859	    119.74817918
      2.15000000	     -6.27794432	      2.46070089	   -127.09194742	      0.07686203	      1.01545841	     -0.08912375	      5.08160230	      0.46349297	     26.21337162	      2.60687574	      4.70672927	      9.77910871	      0.00000000	     20.38707343	    -23.87585936	    -39.99999995	     33.10931297	     -6.97657872	    -22.13465795	      0.00000000	    -14.16576641	      4.45309951	    -12.87608451	     28.16031159	    -50.02830952	     16.58669520	     96.05701082	    118.38604022	     71.08408908	    -57.53553499	     70.61834180	     77.24175065	    119.74817918
      2.16666670	     -6.01938315	      2.49975797	   -127.37160443	      0.07892427	      1.01568885	     -0.08888881	      5.28907803	      0.10832190	     26.42413482	      2.39848483	      4.30025191	     10.03124645	      0.00000000	     20.44916075	    -23.42800870	    -39.90604076	     32.81062122	     -6.77288995	    -22.00999029	      0.00000000	    -13.96776417	      4.52185711	    -13.03942843	     28.46233690	    -51.71698733	     15.80106998	     96.69110144	    118.42274279	     71.74171566	    -58.91686220	     70.93078886	     77.00475069	    119.74817918
      2.18333330	     -6.05006934	      2.43402013	   -127.30167406	      0.08053835	      1.01586667	     -0.08907409	      5.07202199	     -0.06757333	     26.80672162	      1.97789765	      3.99015529	      9.72997597	      0.00000000	     20.53683120	    -23.24207206	    -39.43821791	     32.80328447	     -6.59781473	    -21.75947284	      0.00000000	    -14.09870317	      4.52937089	    -13.08362002	     27.75144208	    -53.33940277	     13.72576669	     97.32582891	    118.72533008	     75.41488911	    -59.92212883	     75.38192460	     76.56849737	    119.74817918
      2.20000000	     -5.79800742	      2.53025737	   -127.51602552	      0.08221531	      1.01567108	     -0.08876798	      5.24974397	     -0.39883024	     27.15449918	      1.66585736	      3.77246419	      9.97849897	      0.00000000	     20.74688662	    -22.91148030	    -39.32261672	     32.71693941	     -6.35453214	    -21.75874957	      0.00000000	    -13.90448481	      4.63232834	    -13.18095590	     27.99688303	    -55.16008247	     12.77925559	     97.82579419	    118.76317139	     76.06104739	    -61.27619654	     75.73319761	     76.42014411	    119.74817918
      2.21666670	     -5.65824598	      2.61403535	   -127.59747607	      0.08413711	      1.01549500	     -0.08852619	      5.40280651	     -0.61675900	     27.30534818	      1.47753743	      3.66518322	     10.07657692	      0.00000000	     20.91632893	    -22.70812445	    -39.36769205	     32.64205012	     -6.29753886	    -21.69108460	      0.00000000	    -13.81665708	      4.83763244	    -13.37801760	     28.61869480	    -56.72788290	     11.72145314	     97.71368339	    118.73218148	     76.58367510	    -62.54910216	     75.85488277	     76.01021798	    119.74817918
      2.23333330	     -5.57852385	      2.86298957	   -127.27884444	      0.08579047	      1.01469925	     -0.08906152	      5.45896083	     -0.69628457	     28.04170495	      0.88710027	      2.95950381	      8.73387712	      0.00000000	     21.64138042	    -22.61026497	    -38.47151157	     32.87020309	     -5.92470147	    -21.63249219	      0.00000000	    -13.75483591	      4.89163093	    -13.24408789	     26.74656811	    -58.56211367	      8.33525458	     98.30277742	    119.47842537	     81.62263960	    -63.04360642	     81.96364210	     75.41943199	    119.74817918
      2.25000000	     -5.43746963	      2.96898562	   -127.42716011	      0.08774831	      1.01451598	     -0.08886317	      5.60829548	     -0.95058790	     28.34290802	      0.56281346	      2.73064406	      8.98321783	      0.00000000	     21.81064313	    -22.44205313	    -38.48137573	     32.83724225	     -5.85492525	    -21.57280759	      0.00000000	    -13.75621670	      5.09180790	    -13.32558508	     27.19918739	    -60.12469405	      7.10278192	     98.05141639	    119.50374123	     82.36055386	    -64.51113974	     82.00752599	     75.29896765	    119.74817918
